<mxfile host="app.diagrams.net" modified="2024-03-23T22:33:03.760Z" agent="Mozilla/5.0 (Windows NT 10.0; Win64; x64) AppleWebKit/537.36 (KHTML, like Gecko) Chrome/122.0.0.0 Safari/537.36 Edg/122.0.0.0" version="24.1.0" etag="Zv-OS560vnuaQN46KdHH" type="github">
  <diagram name="Page-1" id="r_Jhe67wBM6sLEmm_Lvf">
    <mxGraphModel>
      <root>
        <mxCell id="0" />
        <mxCell id="1" parent="0" />
      </root>
    </mxGraphModel>
  </diagram>
</mxfile>
